<svg width="50" height="63" viewBox="0 0 50 63" fill="none" xmlns="http://www.w3.org/2000/svg">
<path d="M0.0569343 23.1577C0.177253 22.5901 0.518992 22.0861 1.01423 21.7458C1.50946 21.4056 2.12193 21.2541 2.7299 21.3213C9.97698 22.0897 17.419 25.2707 21.1076 31.2562C22.7036 30.5301 24.2012 29.6245 25.5679 28.5592L22.1638 24.5868C14.8436 16.0273 13.8199 7.2988 13.3487 3.21883C13.2236 2.52229 13.3844 1.80688 13.7981 1.2186C14.2118 0.630316 14.8472 0.213495 15.5748 0.0531939C16.2874 -0.0828717 17.0281 0.044373 17.6446 0.408779C18.2611 0.773185 18.7066 1.34707 18.8896 2.0125C20.3845 6.21542 20.5551 13.2305 27.4041 20.3301L28.2815 21.2445L30.3858 26.2081L28.3465 18.8242C28.176 18.1958 28.1446 17.5409 28.2543 16.9005C28.3639 16.2601 28.6123 15.6481 28.9837 15.1027C29.3552 14.5574 29.8418 14.0905 30.413 13.7313C30.9842 13.3721 31.6277 13.1284 32.3032 13.0154C33.9281 12.7234 47.4229 14.6673 47.4229 14.6673C48.1771 14.7376 48.8708 15.0884 49.3515 15.6424C49.8323 16.1965 50.0606 16.9084 49.9862 17.6217C49.9119 18.3349 49.541 18.991 48.9551 19.4456C48.3693 19.9002 47.6165 20.1161 46.8623 20.0458L36.5686 19.3313L34.8624 17.3643L38.3235 27.6603C39.8834 32.2704 30.662 39.2701 24.5849 41.8825C25.8198 48.1216 25.6086 53.2465 25.5598 59.7007C25.5824 60.3121 25.3474 60.9069 24.9063 61.3543C24.4652 61.8017 23.8542 62.0651 23.2078 62.0865C22.5613 62.1079 21.9324 61.8856 21.4593 61.4684C20.9862 61.0513 20.7077 60.4734 20.6851 59.8621C20.3764 55.7283 20.1651 52.0018 19.5477 48.283C18.8977 44.4412 16.8991 34.7445 13.0481 31.1179C10.1801 28.3979 5.89034 26.6614 1.97432 25.9161C1.65495 25.8576 1.35118 25.7393 1.08092 25.5681C0.810651 25.3969 0.579358 25.1763 0.400668 24.9192C0.221978 24.6621 0.0995069 24.3739 0.0404728 24.0713C-0.0185614 23.7688 -0.0129642 23.4581 0.0569343 23.1577ZM14.8761 37.8103C13.9905 35.8048 10.0014 35.1517 7.564 36.1122C5.46787 36.9343 2.16119 38.8245 3.64797 42.259C5.13476 45.6936 8.88829 44.7869 10.96 43.9571C13.4137 42.9582 15.7535 39.8234 14.8761 37.8103Z" fill="black"/>
</svg>
